#tb 0: 1/25
#media_type 0: video
#codec_id 0: rawvideo
#dimensions 0: 720x576
#sar 0: 16/15
0,          9,          9,        1,  2488320, 0x1ad5d04c
0,         10,         10,        1,  2488320, 0x81a5bc44
0,         11,         11,        1,  2488320, 0x3ff2e751
0,         12,         12,        1,  2488320, 0x50f346f4
0,         13,         13,        1,  2488320, 0x4de253ff
0,         14,         14,        1,  2488320, 0xb6e20e32
0,         15,         15,        1,  2488320, 0x36d4e814
0,         16,         16,        1,  2488320, 0xac45afb1
0,         17,         17,        1,  2488320, 0x2b59bf7a
0,         18,         18,        1,  2488320, 0x9ad9cb62
0,         19,         19,        1,  2488320, 0x032b7858
0,         20,         20,        1,  2488320, 0x89db7bc6
0,         21,         21,        1,  2488320, 0xfcc10b48
0,         22,         22,        1,  2488320, 0xc1ec6425
0,         23,         23,        1,  2488320, 0x1ed1abd3
0,         24,         24,        1,  2488320, 0x180ecb47
0,         25,         25,        1,  2488320, 0x0e4cd4f5
0,         26,         26,        1,  2488320, 0x3b6b7e5b
0,         27,         27,        1,  2488320, 0x6a0e7b72
0,         28,         28,        1,  2488320, 0xc8805042
0,         29,         29,        1,  2488320, 0x1af37657
0,         30,         30,        1,  2488320, 0xbae9f356
0,         31,         31,        1,  2488320, 0x6c31a844
0,         32,         32,        1,  2488320, 0xa9db6890
0,         33,         33,        1,  2488320, 0xb30dc595
0,         34,         34,        1,  2488320, 0xe7ccc324
0,         35,         35,        1,  2488320, 0x4b294e68
0,         36,         36,        1,  2488320, 0xc139ae94
0,         37,         37,        1,  2488320, 0x2ed3171c
0,         38,         38,        1,  2488320, 0xe7fd6071
